<svg id="Layer_1" data-name="Layer 1" xmlns="http://www.w3.org/2000/svg" viewBox="0 0 70 40"><defs><style>.cls-1{fill:#fff;}.cls-2{fill:#282973;}</style></defs><rect class="cls-1" width="70" height="40"/><rect class="cls-2" x="0.76" y="0.91" width="68.48" height="38.18"/><path class="cls-1" d="M9.91,22.68a2.41,2.41,0,0,0,2.53,2A2,2,0,0,0,14.59,23V15.1h-4v-4H19V23c0,3.85-3.37,6-6.75,6-3,0-6.07-1.7-6.57-5.45Z"/><path class="cls-1" d="M23.66,23.15c1.78,2.15,5.68,2.25,5.8.35.05-1-1.57-1.57-3-1.77C23.59,21.28,21,19.48,21,16.1s3.15-5.3,6.4-5.3a7.24,7.24,0,0,1,6,2.83l-2.92,2.25c-1.85-2-5-1.9-5.1.15.05.85,1,1.35,2.35,1.65,3.15.57,6.3,1.67,6.1,6-.15,3.42-3.75,5.3-7,5.3a7.77,7.77,0,0,1-6-3.2Z"/><path class="cls-1" d="M35.79,11.05H40l4.27,7.55,1.5,3.55.12,0s-.47-3.05-.5-3.05v-8h4.45v17.7H45.36l-4-7-1.55-3.55-.12,0,.57,3.43v7.07H35.79Z"/><path class="cls-1" d="M52.69,11.05h4.5V24.33h7.19v4.42H52.69Z"/></svg>